<svg width="128" height="128" viewBox="0 0 128 128" fill="none" xmlns="http://www.w3.org/2000/svg">
    <rect width="128" height="128" fill="#303236"/>
    <path d="M93.4449 95.7257C92.3906 95.7257 91.36 95.4131 90.4834 94.8274C89.6068 94.2416 88.9236 93.4092 88.5202 92.4351C88.1167 91.4611 88.0112 90.3894 88.2169 89.3554C88.4225 88.3214 88.9302 87.3716 89.6757 86.6261C90.4212 85.8806 91.3709 85.3729 92.4049 85.1673C93.4389 84.9616 94.5107 85.0672 95.4847 85.4706C96.4587 85.874 97.2912 86.5573 97.877 87.4338C98.4627 88.3104 98.7753 89.341 98.7753 90.3953C98.7753 91.809 98.2137 93.1648 97.2141 94.1645C96.2144 95.1641 94.8586 95.7257 93.4449 95.7257ZM34.532 95.7257C33.4777 95.7257 32.4471 95.4131 31.5705 94.8274C30.6939 94.2416 30.0107 93.4092 29.6073 92.4351C29.2038 91.4611 29.0983 90.3894 29.3039 89.3554C29.5096 88.3214 30.0173 87.3716 30.7628 86.6261C31.5082 85.8806 32.458 85.3729 33.492 85.1673C34.526 84.9616 35.5978 85.0672 36.5718 85.4706C37.5458 85.874 38.3783 86.5573 38.9641 87.4338C39.5498 88.3104 39.8624 89.341 39.8624 90.3953C39.8624 91.809 39.3008 93.1648 38.3011 94.1645C37.3015 95.1641 35.9457 95.7257 34.532 95.7257ZM95.3685 63.6504L106.029 45.1098C106.203 44.631 106.215 44.1082 106.062 43.6222C105.909 43.1362 105.6 42.7141 105.184 42.4212C104.767 42.1283 104.265 41.981 103.756 42.002C103.247 42.0229 102.759 42.2111 102.368 42.5373C102.287 42.6424 102.225 42.7598 102.182 42.8849L91.4054 61.6573C82.7848 57.7964 73.4457 55.8006 64 55.8006C54.5543 55.8006 45.2152 57.7964 36.5946 61.6573L25.7947 42.9776C25.4641 42.6012 25.0204 42.3421 24.5302 42.239C24.0399 42.136 23.5295 42.1946 23.0753 42.406C22.6212 42.6174 22.2477 42.9703 22.011 43.4118C21.7742 43.8532 21.6869 44.3596 21.7621 44.8548C21.8087 44.983 21.8795 45.101 21.9707 45.2025L32.6084 63.7431C23.4225 68.7506 15.6302 75.9696 9.93657 84.7467C4.24297 93.5238 0.827761 103.582 0 114.011V128H128V114.011C127.183 103.564 123.77 93.4864 118.072 84.692C112.374 75.8977 104.57 68.6651 95.3685 63.6504Z"
          fill="#3DDC84"/>
</svg>
