<svg width="32" height="32" viewBox="0 0 32 32" fill="none" xmlns="http://www.w3.org/2000/svg">
    <path fill-rule="evenodd" clip-rule="evenodd" d="M19.9057 8.53709L23.0322 8.5371V22.4382L24 27.9874L6.00002 31.1961L13.8933 23.2466V17.7776L10.9932 18.5632L11.8353 13.6926L7.64041 8.53709L13.7731 1L19.9057 8.53709Z" fill="#57E089"/>
    <path d="M23.8613 16.935L10.0336 19.125L14.9138 5.19005L28.7415 2.99997L23.8613 16.935Z" fill="#FF6033"/>
    <rect x="6" y="8" width="19" height="19" fill="black"/>
    <path d="M19.6667 15V22.2H17.3333V20.4H15V22.2C15 23.194 16.0447 24 17.3333 24H19.6667C20.9552 24 22 23.194 22 22.2V15H19.6667Z" fill="white"/>
</svg>
